<svg width="122" height="122" viewBox="0 0 122 122" fill="none" xmlns="http://www.w3.org/2000/svg">
<path d="M20.3334 101.667C18.8931 101.667 17.6866 101.179 16.714 100.203C15.7414 99.2267 15.2534 98.0202 15.25 96.5833C15.2466 95.1465 15.7346 93.94 16.714 92.964C17.6934 91.988 18.8999 91.5 20.3334 91.5H71.1667C72.607 91.5 73.8151 91.988 74.7911 92.964C75.7671 93.94 76.2534 95.1465 76.25 96.5833C76.2466 98.0202 75.7586 99.2284 74.786 100.208C73.8134 101.187 72.607 101.673 71.1667 101.667H20.3334ZM20.3334 61C18.8931 61 17.6866 60.512 16.714 59.536C15.7414 58.56 15.2534 57.3536 15.25 55.9167C15.2466 54.4798 15.7346 53.2733 16.714 52.2973C17.6934 51.3213 18.8999 50.8333 20.3334 50.8333H44.0979C45.5382 50.8333 46.7463 51.3213 47.7223 52.2973C48.6983 53.2733 49.1847 54.4798 49.1813 55.9167C49.1813 57.2722 48.6933 58.4583 47.7173 59.475C46.7413 60.4917 45.5348 61 44.0979 61H20.3334ZM20.3334 81.3333C18.8931 81.3333 17.6866 80.8453 16.714 79.8693C15.7414 78.8933 15.2534 77.6869 15.25 76.25C15.2466 74.8131 15.7346 73.6067 16.714 72.6307C17.6934 71.6547 18.8999 71.1667 20.3334 71.1667H60.6188C62.059 71.1667 63.2672 71.6547 64.2432 72.6307C65.2192 73.6067 65.7055 74.8131 65.7021 76.25C65.7021 77.6056 65.2361 78.7917 64.3042 79.8083C63.3722 80.825 62.1438 81.3333 60.6188 81.3333H20.3334Z" fill="url(#paint0_linear_40001382_20994)"/>
<rect x="59.8984" y="19.1393" width="35.1013" height="47" rx="15" fill="url(#paint1_linear_40001382_20994)"/>
<path d="M69.4961 48.3864L77.1372 55.764L84.7784 48.3864M84.7784 37.3199L77.1372 29.9422L69.4961 37.3199" stroke="white" stroke-width="4" stroke-linecap="round" stroke-linejoin="round"/>
<path d="M56.0586 24.1884L55.638 25.1561C55.5722 25.3137 55.4614 25.4483 55.3193 25.5429C55.1772 25.6376 55.0103 25.6881 54.8396 25.6881C54.6688 25.6881 54.5019 25.6376 54.3598 25.5429C54.2178 25.4483 54.1069 25.3137 54.0411 25.1561L53.6206 24.1884C52.8811 22.4766 51.5269 21.104 49.8251 20.3417L48.5275 19.7621C48.37 19.6897 48.2367 19.5736 48.1432 19.4277C48.0497 19.2818 48 19.1122 48 18.9389C48 18.7656 48.0497 18.5959 48.1432 18.45C48.2367 18.3041 48.37 18.1881 48.5275 18.1157L49.7533 17.5703C51.4978 16.7862 52.8752 15.3629 53.6018 13.5936L54.036 12.549C54.0995 12.3872 54.2104 12.2482 54.354 12.1503C54.4976 12.0524 54.6674 12 54.8413 12C55.0151 12 55.1849 12.0524 55.3286 12.1503C55.4722 12.2482 55.583 12.3872 55.6465 12.549L56.0791 13.5919C56.8048 15.3615 58.1816 16.7854 59.9258 17.5703L61.1534 18.1174C61.3103 18.19 61.4432 18.306 61.5364 18.4517C61.6295 18.5975 61.679 18.7668 61.679 18.9397C61.679 19.1127 61.6295 19.282 61.5364 19.4277C61.4432 19.5734 61.3103 19.6894 61.1534 19.7621L59.854 20.3399C58.1526 21.1031 56.799 22.4762 56.0603 24.1884" fill="#0BAFDC"/>
<defs>
<linearGradient id="paint0_linear_40001382_20994" x1="60.1648" y1="-254.167" x2="153.072" y2="-235.437" gradientUnits="userSpaceOnUse">
<stop stop-color="#0BAFDC"/>
<stop offset="1" stop-color="#E0F3F8"/>
</linearGradient>
<linearGradient id="paint1_linear_40001382_20994" x1="85.7438" y1="-262.861" x2="140.516" y2="-255.989" gradientUnits="userSpaceOnUse">
<stop stop-color="#E0F3F8"/>
<stop offset="1" stop-color="#0BAFDC"/>
</linearGradient>
</defs>
</svg>
