<svg width="310" height="121" viewBox="0 0 310 121" fill="none" xmlns="http://www.w3.org/2000/svg">
<path d="M263.098 3H294.021V121H263.098V3Z" fill="#0BAFDC"/>
<path d="M130.713 3C144.642 3 156.566 6.63107 166.483 13.8926C176.401 21.1541 182.865 30.9604 186.208 43.5029H154.783C152.443 38.662 149.267 35.0715 144.921 32.541C140.686 30.0106 135.839 28.7451 130.379 28.7451C121.576 28.7451 114.444 31.7711 108.983 37.8223C103.523 43.8734 100.793 51.9601 100.793 62.082C100.793 72.2042 103.523 80.2915 108.983 86.3428C114.444 92.394 121.576 95.4199 130.379 95.4199C135.839 95.4199 140.686 94.1545 144.921 91.624C149.267 89.0935 152.61 85.4074 154.95 80.5664H186.375C183.032 93.1091 176.401 103.011 166.483 110.272C156.566 117.424 144.642 121 130.713 121C130.546 121 130.379 120.997 130.212 120.996V121H87.7549L80.7344 100.535H36.9404L29.9199 121H0L42.457 5.14551H75.5527L83.0449 25.5898C87.5896 19.3918 93.2818 14.3918 100.124 10.5918C109.15 5.53076 119.347 3.00003 130.713 3ZM44.4629 78.751H73.3799L58.8379 36.3369L44.4629 78.751Z" fill="#0BAFDC"/>
<path d="M130.212 3H263.098V43.4336H160.49L130.212 3Z" fill="url(#paint0_linear_40001382_20804)"/>
<path d="M196.237 28.5804H227.161V121H196.237V28.5804Z" fill="#0BAFDC"/>
<path d="M245.263 27.8534C244.534 27.8534 243.88 27.7365 243.303 27.5027C242.725 27.2689 242.261 26.9229 241.91 26.4647C241.569 26.0064 241.389 25.4547 241.37 24.8094H243.956C243.994 25.1741 244.122 25.4547 244.34 25.6511C244.558 25.8381 244.842 25.9316 245.192 25.9316C245.552 25.9316 245.836 25.8521 246.045 25.6931C246.253 25.5248 246.357 25.2957 246.357 25.0058C246.357 24.7626 246.272 24.5615 246.102 24.4026C245.941 24.2436 245.737 24.1127 245.491 24.0098C245.254 23.9069 244.913 23.79 244.468 23.6591C243.824 23.4627 243.298 23.2663 242.891 23.0699C242.483 22.8735 242.133 22.5836 241.839 22.2002C241.546 21.8167 241.399 21.3164 241.399 20.6992C241.399 19.7827 241.735 19.0673 242.408 18.5529C243.08 18.0292 243.956 17.7673 245.036 17.7673C246.135 17.7673 247.02 18.0292 247.693 18.5529C248.365 19.0673 248.725 19.7874 248.773 20.7132H246.144C246.125 20.3952 246.007 20.1474 245.789 19.9697C245.571 19.7827 245.292 19.6892 244.951 19.6892C244.657 19.6892 244.42 19.7687 244.24 19.9276C244.06 20.0773 243.97 20.297 243.97 20.587C243.97 20.9049 244.122 21.1528 244.425 21.3304C244.728 21.5081 245.202 21.6998 245.846 21.9056C246.49 22.1207 247.011 22.3264 247.409 22.5228C247.816 22.7192 248.166 23.0044 248.46 23.3785C248.754 23.7526 248.901 24.2342 248.901 24.8234C248.901 25.3845 248.754 25.8942 248.46 26.3525C248.176 26.8107 247.759 27.1754 247.21 27.4466C246.66 27.7178 246.012 27.8534 245.263 27.8534Z" fill="white"/>
<path d="M240.249 17.9076V27.7552H237.819V17.9076H240.249Z" fill="white"/>
<path d="M236.421 17.9076V27.7552H233.991V23.7011H230.212V27.7552H227.782V17.9076H230.212V21.7653H233.991V17.9076H236.421Z" fill="white"/>
<path d="M226.918 17.9076V19.8294H224.275V27.7552H221.846V19.8294H219.203V17.9076H226.918Z" fill="white"/>
<path d="M212.186 19.8294V21.8214H215.439V23.6731H212.186V25.8334H215.865V27.7552H209.756V17.9076H215.865V19.8294H212.186Z" fill="white"/>
<path d="M205.987 27.7552L202.634 23.4066V27.7552H200.204V17.9076H202.634V22.2282L205.959 17.9076H208.814L204.95 22.7332L208.957 27.7552H205.987Z" fill="white"/>
<path d="M198.799 17.9076V27.7552H196.369V17.9076H198.799Z" fill="white"/>
<path d="M192.383 25.9035H195.566V27.7552H189.954V17.9076H192.383V25.9035Z" fill="white"/>
<path d="M186.434 17.9076V19.8294H183.791V27.7552H181.362V19.8294H178.719V17.9076H186.434Z" fill="white"/>
<path d="M168.38 22.8174C168.38 21.8448 168.593 20.9798 169.019 20.2222C169.445 19.4554 170.037 18.8615 170.795 18.4407C171.562 18.0105 172.429 17.7954 173.395 17.7954C174.579 17.7954 175.592 18.104 176.435 18.7213C177.278 19.3385 177.842 20.1802 178.126 21.2463H175.455C175.256 20.8348 174.972 20.5215 174.603 20.3064C174.243 20.0913 173.831 19.9838 173.367 19.9838C172.618 19.9838 172.012 20.241 171.548 20.7553C171.084 21.2697 170.852 21.957 170.852 22.8174C170.852 23.6778 171.084 24.3652 171.548 24.8795C172.012 25.3939 172.618 25.6511 173.367 25.6511C173.831 25.6511 174.243 25.5435 174.603 25.3284C174.972 25.1133 175.256 24.8 175.455 24.3886H178.126C177.842 25.4547 177.278 26.2964 176.435 26.9136C175.592 27.5215 174.579 27.8254 173.395 27.8254C172.429 27.8254 171.562 27.615 170.795 27.1942C170.037 26.764 169.445 26.1701 169.019 25.4126C168.593 24.6551 168.38 23.79 168.38 22.8174Z" fill="white"/>
<path d="M164.88 26.0158H161.158L160.561 27.7552H158.018L161.627 17.9076H164.44L168.049 27.7552H165.477L164.88 26.0158ZM164.255 24.1641L163.019 20.5589L161.797 24.1641H164.255Z" fill="white"/>
<g filter="url(#filter0_d_40001382_20804)">
<path d="M275.774 18.8924L275.362 19.8265C275.298 19.9787 275.19 20.1086 275.051 20.2C274.912 20.2914 274.749 20.3402 274.582 20.3402C274.415 20.3402 274.252 20.2914 274.113 20.2C273.974 20.1086 273.865 19.9787 273.801 19.8265L273.39 18.8924C272.667 17.2398 271.343 15.9147 269.679 15.1787L268.41 14.6192C268.256 14.5493 268.126 14.4373 268.034 14.2964C267.943 14.1556 267.894 13.9918 267.894 13.8245C267.894 13.6572 267.943 13.4934 268.034 13.3526C268.126 13.2117 268.256 13.0997 268.41 13.0298L269.609 12.5033C271.314 11.7463 272.661 10.3723 273.371 8.66425L273.796 7.6558C273.858 7.49958 273.967 7.36547 274.107 7.27094C274.247 7.17641 274.413 7.12585 274.583 7.12585C274.753 7.12585 274.919 7.17641 275.06 7.27094C275.2 7.36547 275.309 7.49958 275.371 7.6558L275.794 8.6626C276.503 10.371 277.85 11.7456 279.555 12.5033L280.755 13.0315C280.909 13.1016 281.039 13.2136 281.13 13.3542C281.221 13.4949 281.269 13.6584 281.269 13.8253C281.269 13.9923 281.221 14.1558 281.13 14.2964C281.039 14.4371 280.909 14.5491 280.755 14.6192L279.485 15.1771C277.821 15.9138 276.498 17.2394 275.775 18.8924M273.017 42.7998C274.732 32.5816 278.447 10.4237 303 10.4237C300.499 15.3752 298.821 17.8509 297.149 19.5014L295.478 21.1519L297.985 22.8024C296.313 27.7539 291.298 33.5306 284.612 34.3558C280.151 34.906 277.363 37.9319 276.25 43.4335H272.91L273.017 42.7998Z" fill="white"/>
</g>
<defs>
<filter id="filter0_d_40001382_20804" x="260.894" y="0.125854" width="49.1059" height="50.3077" filterUnits="userSpaceOnUse" color-interpolation-filters="sRGB">
<feFlood flood-opacity="0" result="BackgroundImageFix"/>
<feColorMatrix in="SourceAlpha" type="matrix" values="0 0 0 0 0 0 0 0 0 0 0 0 0 0 0 0 0 0 127 0" result="hardAlpha"/>
<feOffset/>
<feGaussianBlur stdDeviation="3.5"/>
<feComposite in2="hardAlpha" operator="out"/>
<feColorMatrix type="matrix" values="0 0 0 0 0 0 0 0 0 0 0 0 0 0 0 0 0 0 0.1 0"/>
<feBlend mode="normal" in2="BackgroundImageFix" result="effect1_dropShadow_40001382_20804"/>
<feBlend mode="normal" in="SourceGraphic" in2="effect1_dropShadow_40001382_20804" result="shape"/>
</filter>
<linearGradient id="paint0_linear_40001382_20804" x1="158.387" y1="43.4336" x2="263.098" y2="43.4336" gradientUnits="userSpaceOnUse">
<stop offset="0.65" stop-color="#0BAFDC"/>
<stop offset="1" stop-color="#9CDEF1"/>
</linearGradient>
</defs>
</svg>
