<svg width="24" height="25" viewBox="0 0 24 25" fill="none" xmlns="http://www.w3.org/2000/svg">
<g clip-path="url(#clip0_40001166_8553)">
<path d="M4.71253 7.6281L4.46653 8.1941C4.42809 8.28627 4.36323 8.365 4.28013 8.42038C4.19703 8.47575 4.0994 8.50531 3.99953 8.50531C3.89967 8.50531 3.80204 8.47575 3.71894 8.42038C3.63584 8.365 3.57098 8.28627 3.53253 8.1941L3.28653 7.6281C2.85401 6.62683 2.06192 5.82402 1.06653 5.3781L0.307534 5.0391C0.215452 4.99675 0.137448 4.92887 0.082767 4.84353C0.0280865 4.75819 -0.000976562 4.65896 -0.000976562 4.5576C-0.000976563 4.45625 0.0280865 4.35702 0.082767 4.27168C0.137448 4.18633 0.215452 4.11846 0.307534 4.0761L1.02453 3.7571C2.04494 3.29848 2.85059 2.46599 3.27553 1.4311L3.52953 0.820105C3.56669 0.725458 3.6315 0.644203 3.71552 0.58693C3.79953 0.529657 3.89885 0.499023 4.00053 0.499023C4.10221 0.499023 4.20153 0.529657 4.28555 0.58693C4.36956 0.644203 4.43437 0.725458 4.47153 0.820105L4.72453 1.4301C5.14902 2.46518 5.95432 3.29804 6.97453 3.7571L7.69253 4.0771C7.78434 4.11958 7.86206 4.18745 7.91654 4.27268C7.97101 4.35791 7.99996 4.45695 7.99996 4.5581C7.99996 4.65926 7.97101 4.7583 7.91654 4.84353C7.86206 4.92876 7.78434 4.99662 7.69253 5.0391L6.93253 5.3771C5.93735 5.82347 5.14561 6.62663 4.71353 7.6281M3.06353 22.1131C4.08953 15.9221 6.31153 2.4971 20.9995 2.4971C19.5035 5.4971 18.4995 6.9971 17.4995 7.9971L16.4995 8.9971L17.9995 9.9971C16.9995 12.9971 13.9995 16.4971 9.99953 16.9971C7.33087 17.3304 5.66353 19.1638 4.99753 22.4971H2.99953L3.06353 22.1131Z" fill="white"/>
</g>
<defs>
<clipPath id="clip0_40001166_8553">
<rect width="24" height="24" fill="white" transform="translate(0 0.5)"/>
</clipPath>
</defs>
</svg>
