<svg width="16" height="17" viewBox="0 0 16 17" fill="none" xmlns="http://www.w3.org/2000/svg">
<mask id="path-1-inside-1_40001132_2364" fill="white">
<path d="M1 4.8198C1 3.53861 2.03861 2.5 3.3198 2.5H12.6802C13.9614 2.5 15 3.53861 15 4.8198V12.1802C15 13.4614 13.9614 14.5 12.6802 14.5H3.3198C2.03861 14.5 1 13.4614 1 12.1802V4.8198Z"/>
</mask>
<path d="M3.3198 2.5V3.7H12.6802V2.5V1.3H3.3198V2.5ZM15 4.8198H13.8V12.1802H15H16.2V4.8198H15ZM12.6802 14.5V13.3H3.3198V14.5V15.7H12.6802V14.5ZM1 12.1802H2.2V4.8198H1H-0.2V12.1802H1ZM3.3198 14.5V13.3C2.70135 13.3 2.2 12.7986 2.2 12.1802H1H-0.2C-0.2 14.1241 1.37587 15.7 3.3198 15.7V14.5ZM15 12.1802H13.8C13.8 12.7986 13.2986 13.3 12.6802 13.3V14.5V15.7C14.6241 15.7 16.2 14.1241 16.2 12.1802H15ZM12.6802 2.5V3.7C13.2986 3.7 13.8 4.20135 13.8 4.8198H15H16.2C16.2 2.87587 14.6241 1.3 12.6802 1.3V2.5ZM3.3198 2.5V1.3C1.37587 1.3 -0.2 2.87587 -0.2 4.8198H1H2.2C2.2 4.20135 2.70135 3.7 3.3198 3.7V2.5Z" fill="#46474C" mask="url(#path-1-inside-1_40001132_2364)"/>
<line x1="5.6" y1="2.5" x2="5.6" y2="14.5" stroke="#46474C" stroke-width="1.2"/>
</svg>
